<?xml version="1.0" encoding="UTF-8" standalone="no"?>
<!DOCTYPE svg PUBLIC "-//W3C//DTD SVG 1.1//EN"
 "http://www.w3.org/Graphics/SVG/1.1/DTD/svg11.dtd">
<!-- Generated by graphviz version 2.42.3 (0)
 -->
<!-- Title: finite_state_machine Pages: 1 -->
<svg width="647pt" height="236pt"
 viewBox="0.00 0.00 647.06 236.29" xmlns="http://www.w3.org/2000/svg" xmlns:xlink="http://www.w3.org/1999/xlink">
<g id="graph0" class="graph" transform="scale(1 1) rotate(0) translate(4 232.29)">
<title>finite_state_machine</title>
<polygon fill="white" stroke="transparent" points="-4,4 -4,-232.29 643.06,-232.29 643.06,4 -4,4"/>
<!-- START -->
<g id="node1" class="node">
<title>START</title>
<ellipse fill="none" stroke="black" cx="41.6" cy="-113.65" rx="41.69" ry="41.69"/>
<text text-anchor="middle" x="41.6" y="-109.95" font-family="Times,serif" font-size="14.00">START</text>
</g>
<!-- J0,T0,M0 -->
<g id="node2" class="node">
<title>J0,T0,M0</title>
<ellipse fill="none" stroke="black" cx="172.84" cy="-175.65" rx="52.79" ry="52.79"/>
<text text-anchor="middle" x="172.84" y="-171.95" font-family="Times,serif" font-size="14.00">J0,T0,M0</text>
</g>
<!-- START&#45;&gt;J0,T0,M0 -->
<g id="edge1" class="edge">
<title>START&#45;&gt;J0,T0,M0</title>
<path fill="none" stroke="black" d="M79.29,-131.25C90.59,-136.67 103.3,-142.76 115.59,-148.66"/>
<polygon fill="black" stroke="black" points="114.36,-151.95 124.89,-153.12 117.39,-145.64 114.36,-151.95"/>
</g>
<!-- J1,T0,M1 -->
<g id="node6" class="node">
<title>J1,T0,M1</title>
<ellipse fill="none" stroke="black" cx="172.84" cy="-52.65" rx="52.79" ry="52.79"/>
<text text-anchor="middle" x="172.84" y="-48.95" font-family="Times,serif" font-size="14.00">J1,T0,M1</text>
</g>
<!-- START&#45;&gt;J1,T0,M1 -->
<g id="edge5" class="edge">
<title>START&#45;&gt;J1,T0,M1</title>
<path fill="none" stroke="black" d="M79.63,-96.17C90.81,-90.89 103.34,-84.98 115.47,-79.25"/>
<polygon fill="black" stroke="black" points="117.1,-82.35 124.64,-74.92 114.11,-76.02 117.1,-82.35"/>
</g>
<!-- J0,T1,M1 -->
<g id="node3" class="node">
<title>J0,T1,M1</title>
<ellipse fill="none" stroke="black" cx="324.13" cy="-175.65" rx="52.79" ry="52.79"/>
<text text-anchor="middle" x="324.13" y="-171.95" font-family="Times,serif" font-size="14.00">J0,T1,M1</text>
</g>
<!-- J0,T0,M0&#45;&gt;J0,T1,M1 -->
<g id="edge2" class="edge">
<title>J0,T0,M0&#45;&gt;J0,T1,M1</title>
<path fill="none" stroke="black" d="M225.63,-175.65C237.1,-175.65 249.36,-175.65 261.18,-175.65"/>
<polygon fill="black" stroke="black" points="261.42,-179.15 271.42,-175.65 261.42,-172.15 261.42,-179.15"/>
<text text-anchor="middle" x="248.48" y="-179.45" font-family="Times,serif" font-size="14.00">3</text>
</g>
<!-- J0,T2,M2 -->
<g id="node4" class="node">
<title>J0,T2,M2</title>
<ellipse fill="none" stroke="black" cx="475.42" cy="-175.65" rx="52.79" ry="52.79"/>
<text text-anchor="middle" x="475.42" y="-171.95" font-family="Times,serif" font-size="14.00">J0,T2,M2</text>
</g>
<!-- J0,T1,M1&#45;&gt;J0,T2,M2 -->
<g id="edge3" class="edge">
<title>J0,T1,M1&#45;&gt;J0,T2,M2</title>
<path fill="none" stroke="black" d="M376.92,-175.65C388.39,-175.65 400.65,-175.65 412.47,-175.65"/>
<polygon fill="black" stroke="black" points="412.72,-179.15 422.72,-175.65 412.72,-172.15 412.72,-179.15"/>
<text text-anchor="middle" x="399.77" y="-179.45" font-family="Times,serif" font-size="14.00">3</text>
</g>
<!-- END -->
<g id="node5" class="node">
<title>END</title>
<ellipse fill="none" stroke="black" cx="606.56" cy="-113.65" rx="32.49" ry="32.49"/>
<text text-anchor="middle" x="606.56" y="-109.95" font-family="Times,serif" font-size="14.00">END</text>
</g>
<!-- J0,T2,M2&#45;&gt;END -->
<g id="edge4" class="edge">
<title>J0,T2,M2&#45;&gt;END</title>
<path fill="none" stroke="black" d="M523.41,-153.09C537.94,-146.11 553.76,-138.52 567.6,-131.87"/>
<polygon fill="black" stroke="black" points="569.33,-134.92 576.83,-127.44 566.3,-128.61 569.33,-134.92"/>
<text text-anchor="middle" x="551.06" y="-144.45" font-family="Times,serif" font-size="14.00">2</text>
</g>
<!-- J1,T1,M0 -->
<g id="node7" class="node">
<title>J1,T1,M0</title>
<ellipse fill="none" stroke="black" cx="324.13" cy="-52.65" rx="52.79" ry="52.79"/>
<text text-anchor="middle" x="324.13" y="-48.95" font-family="Times,serif" font-size="14.00">J1,T1,M0</text>
</g>
<!-- J1,T0,M1&#45;&gt;J1,T1,M0 -->
<g id="edge6" class="edge">
<title>J1,T0,M1&#45;&gt;J1,T1,M0</title>
<path fill="none" stroke="black" d="M225.63,-52.65C237.1,-52.65 249.36,-52.65 261.18,-52.65"/>
<polygon fill="black" stroke="black" points="261.42,-56.15 271.42,-52.65 261.42,-49.15 261.42,-56.15"/>
<text text-anchor="middle" x="248.48" y="-56.45" font-family="Times,serif" font-size="14.00">2</text>
</g>
<!-- J1,T2,M2 -->
<g id="node8" class="node">
<title>J1,T2,M2</title>
<ellipse fill="none" stroke="black" cx="475.42" cy="-52.65" rx="52.79" ry="52.79"/>
<text text-anchor="middle" x="475.42" y="-48.95" font-family="Times,serif" font-size="14.00">J1,T2,M2</text>
</g>
<!-- J1,T1,M0&#45;&gt;J1,T2,M2 -->
<g id="edge7" class="edge">
<title>J1,T1,M0&#45;&gt;J1,T2,M2</title>
<path fill="none" stroke="black" d="M376.92,-52.65C388.39,-52.65 400.65,-52.65 412.47,-52.65"/>
<polygon fill="black" stroke="black" points="412.72,-56.15 422.72,-52.65 412.72,-49.15 412.72,-56.15"/>
<text text-anchor="middle" x="399.77" y="-56.45" font-family="Times,serif" font-size="14.00">2</text>
</g>
<!-- J1,T2,M2&#45;&gt;END -->
<g id="edge8" class="edge">
<title>J1,T2,M2&#45;&gt;END</title>
<path fill="none" stroke="black" d="M523.41,-74.84C537.94,-81.7 553.76,-89.18 567.6,-95.71"/>
<polygon fill="black" stroke="black" points="566.29,-98.97 576.83,-100.07 569.28,-92.64 566.29,-98.97"/>
<text text-anchor="middle" x="551.06" y="-91.45" font-family="Times,serif" font-size="14.00">4</text>
</g>
</g>
</svg>
