<?xml version="1.0" encoding="UTF-8" standalone="no"?>
<!DOCTYPE svg PUBLIC "-//W3C//DTD SVG 1.1//EN"
 "http://www.w3.org/Graphics/SVG/1.1/DTD/svg11.dtd">
<!-- Generated by graphviz version 2.42.3 (0)
 -->
<!-- Title: finite_state_machine Pages: 1 -->
<svg width="1128pt" height="728pt"
 viewBox="0.00 0.00 1127.93 728.29" xmlns="http://www.w3.org/2000/svg" xmlns:xlink="http://www.w3.org/1999/xlink">
<g id="graph0" class="graph" transform="scale(1 1) rotate(0) translate(4 724.29)">
<title>finite_state_machine</title>
<polygon fill="white" stroke="transparent" points="-4,4 -4,-724.29 1123.93,-724.29 1123.93,4 -4,4"/>
<!-- START -->
<g id="node1" class="node">
<title>START</title>
<ellipse fill="none" stroke="black" cx="41.6" cy="-359.65" rx="41.69" ry="41.69"/>
<text text-anchor="middle" x="41.6" y="-355.95" font-family="Times,serif" font-size="14.00">START</text>
</g>
<!-- J0,T0,M2 -->
<g id="node2" class="node">
<title>J0,T0,M2</title>
<ellipse fill="none" stroke="black" cx="172.84" cy="-667.65" rx="52.79" ry="52.79"/>
<text text-anchor="middle" x="172.84" y="-663.95" font-family="Times,serif" font-size="14.00">J0,T0,M2</text>
</g>
<!-- START&#45;&gt;J0,T0,M2 -->
<g id="edge1" class="edge">
<title>START&#45;&gt;J0,T0,M2</title>
<path fill="none" stroke="black" d="M50.22,-400.54C60.82,-451.22 83,-539.12 120.19,-606.65 123.02,-611.78 126.33,-616.89 129.87,-621.83"/>
<polygon fill="black" stroke="black" points="127.2,-624.1 136.02,-629.97 132.79,-619.89 127.2,-624.1"/>
</g>
<!-- J1,T0,M1 -->
<g id="node9" class="node">
<title>J1,T0,M1</title>
<ellipse fill="none" stroke="black" cx="172.84" cy="-544.65" rx="52.79" ry="52.79"/>
<text text-anchor="middle" x="172.84" y="-540.95" font-family="Times,serif" font-size="14.00">J1,T0,M1</text>
</g>
<!-- START&#45;&gt;J1,T0,M1 -->
<g id="edge8" class="edge">
<title>START&#45;&gt;J1,T0,M1</title>
<path fill="none" stroke="black" d="M63.2,-395.54C78.13,-420.79 99.3,-455.04 120.19,-483.65 123.6,-488.31 127.27,-493.07 131.02,-497.78"/>
<polygon fill="black" stroke="black" points="128.35,-500.05 137.37,-505.61 133.79,-495.64 128.35,-500.05"/>
</g>
<!-- J2,T0,M2 -->
<g id="node15" class="node">
<title>J2,T0,M2</title>
<ellipse fill="none" stroke="black" cx="172.84" cy="-421.65" rx="52.79" ry="52.79"/>
<text text-anchor="middle" x="172.84" y="-417.95" font-family="Times,serif" font-size="14.00">J2,T0,M2</text>
</g>
<!-- START&#45;&gt;J2,T0,M2 -->
<g id="edge15" class="edge">
<title>START&#45;&gt;J2,T0,M2</title>
<path fill="none" stroke="black" d="M79.29,-377.25C90.59,-382.67 103.3,-388.76 115.59,-394.66"/>
<polygon fill="black" stroke="black" points="114.36,-397.95 124.89,-399.12 117.39,-391.64 114.36,-397.95"/>
</g>
<!-- J3,T0,M1 -->
<g id="node21" class="node">
<title>J3,T0,M1</title>
<ellipse fill="none" stroke="black" cx="172.84" cy="-298.65" rx="52.79" ry="52.79"/>
<text text-anchor="middle" x="172.84" y="-294.95" font-family="Times,serif" font-size="14.00">J3,T0,M1</text>
</g>
<!-- START&#45;&gt;J3,T0,M1 -->
<g id="edge22" class="edge">
<title>START&#45;&gt;J3,T0,M1</title>
<path fill="none" stroke="black" d="M79.63,-342.17C90.81,-336.89 103.34,-330.98 115.47,-325.25"/>
<polygon fill="black" stroke="black" points="117.1,-328.35 124.64,-320.92 114.11,-322.02 117.1,-328.35"/>
</g>
<!-- J4,T0,M2 -->
<g id="node27" class="node">
<title>J4,T0,M2</title>
<ellipse fill="none" stroke="black" cx="172.84" cy="-175.65" rx="52.79" ry="52.79"/>
<text text-anchor="middle" x="172.84" y="-171.95" font-family="Times,serif" font-size="14.00">J4,T0,M2</text>
</g>
<!-- START&#45;&gt;J4,T0,M2 -->
<g id="edge29" class="edge">
<title>START&#45;&gt;J4,T0,M2</title>
<path fill="none" stroke="black" d="M63.24,-324.06C78.2,-299.02 99.37,-265.05 120.19,-236.65 123.61,-231.99 127.28,-227.23 131.03,-222.53"/>
<polygon fill="black" stroke="black" points="133.81,-224.67 137.4,-214.7 128.37,-220.25 133.81,-224.67"/>
</g>
<!-- J5,T0,M1 -->
<g id="node33" class="node">
<title>J5,T0,M1</title>
<ellipse fill="none" stroke="black" cx="172.84" cy="-52.65" rx="52.79" ry="52.79"/>
<text text-anchor="middle" x="172.84" y="-48.95" font-family="Times,serif" font-size="14.00">J5,T0,M1</text>
</g>
<!-- START&#45;&gt;J5,T0,M1 -->
<g id="edge36" class="edge">
<title>START&#45;&gt;J5,T0,M1</title>
<path fill="none" stroke="black" d="M50.25,-318.91C60.88,-268.44 83.1,-180.9 120.19,-113.65 123.03,-108.51 126.33,-103.4 129.88,-98.46"/>
<polygon fill="black" stroke="black" points="132.79,-100.41 136.03,-90.32 127.21,-96.19 132.79,-100.41"/>
</g>
<!-- J0,T1,M0 -->
<g id="node3" class="node">
<title>J0,T1,M0</title>
<ellipse fill="none" stroke="black" cx="324.13" cy="-667.65" rx="52.79" ry="52.79"/>
<text text-anchor="middle" x="324.13" y="-663.95" font-family="Times,serif" font-size="14.00">J0,T1,M0</text>
</g>
<!-- J0,T0,M2&#45;&gt;J0,T1,M0 -->
<g id="edge2" class="edge">
<title>J0,T0,M2&#45;&gt;J0,T1,M0</title>
<path fill="none" stroke="black" d="M225.63,-667.65C237.1,-667.65 249.36,-667.65 261.18,-667.65"/>
<polygon fill="black" stroke="black" points="261.42,-671.15 271.42,-667.65 261.42,-664.15 261.42,-671.15"/>
<text text-anchor="middle" x="248.48" y="-671.45" font-family="Times,serif" font-size="14.00">1</text>
</g>
<!-- J0,T2,M1 -->
<g id="node4" class="node">
<title>J0,T2,M1</title>
<ellipse fill="none" stroke="black" cx="475.42" cy="-667.65" rx="52.79" ry="52.79"/>
<text text-anchor="middle" x="475.42" y="-663.95" font-family="Times,serif" font-size="14.00">J0,T2,M1</text>
</g>
<!-- J0,T1,M0&#45;&gt;J0,T2,M1 -->
<g id="edge3" class="edge">
<title>J0,T1,M0&#45;&gt;J0,T2,M1</title>
<path fill="none" stroke="black" d="M376.92,-667.65C388.39,-667.65 400.65,-667.65 412.47,-667.65"/>
<polygon fill="black" stroke="black" points="412.72,-671.15 422.72,-667.65 412.72,-664.15 412.72,-671.15"/>
<text text-anchor="middle" x="399.77" y="-671.45" font-family="Times,serif" font-size="14.00">3</text>
</g>
<!-- J0,T3,M3 -->
<g id="node5" class="node">
<title>J0,T3,M3</title>
<ellipse fill="none" stroke="black" cx="635.71" cy="-667.65" rx="52.79" ry="52.79"/>
<text text-anchor="middle" x="635.71" y="-663.95" font-family="Times,serif" font-size="14.00">J0,T3,M3</text>
</g>
<!-- J0,T2,M1&#45;&gt;J0,T3,M3 -->
<g id="edge4" class="edge">
<title>J0,T2,M1&#45;&gt;J0,T3,M3</title>
<path fill="none" stroke="black" d="M528.25,-667.65C542.53,-667.65 558.17,-667.65 572.96,-667.65"/>
<polygon fill="black" stroke="black" points="573.03,-671.15 583.03,-667.65 573.03,-664.15 573.03,-671.15"/>
<text text-anchor="middle" x="555.56" y="-671.45" font-family="Times,serif" font-size="14.00">6</text>
</g>
<!-- J0,T4,M5 -->
<g id="node6" class="node">
<title>J0,T4,M5</title>
<ellipse fill="none" stroke="black" cx="796" cy="-667.65" rx="52.79" ry="52.79"/>
<text text-anchor="middle" x="796" y="-663.95" font-family="Times,serif" font-size="14.00">J0,T4,M5</text>
</g>
<!-- J0,T3,M3&#45;&gt;J0,T4,M5 -->
<g id="edge5" class="edge">
<title>J0,T3,M3&#45;&gt;J0,T4,M5</title>
<path fill="none" stroke="black" d="M688.54,-667.65C702.83,-667.65 718.46,-667.65 733.25,-667.65"/>
<polygon fill="black" stroke="black" points="733.32,-671.15 743.32,-667.65 733.32,-664.15 733.32,-671.15"/>
<text text-anchor="middle" x="715.86" y="-671.45" font-family="Times,serif" font-size="14.00">7</text>
</g>
<!-- J0,T5,M4 -->
<g id="node7" class="node">
<title>J0,T5,M4</title>
<ellipse fill="none" stroke="black" cx="956.29" cy="-667.65" rx="52.79" ry="52.79"/>
<text text-anchor="middle" x="956.29" y="-663.95" font-family="Times,serif" font-size="14.00">J0,T5,M4</text>
</g>
<!-- J0,T4,M5&#45;&gt;J0,T5,M4 -->
<g id="edge6" class="edge">
<title>J0,T4,M5&#45;&gt;J0,T5,M4</title>
<path fill="none" stroke="black" d="M848.83,-667.65C863.12,-667.65 878.75,-667.65 893.54,-667.65"/>
<polygon fill="black" stroke="black" points="893.62,-671.15 903.61,-667.65 893.61,-664.15 893.62,-671.15"/>
<text text-anchor="middle" x="876.15" y="-671.45" font-family="Times,serif" font-size="14.00">3</text>
</g>
<!-- END -->
<g id="node8" class="node">
<title>END</title>
<ellipse fill="none" stroke="black" cx="1087.43" cy="-359.65" rx="32.49" ry="32.49"/>
<text text-anchor="middle" x="1087.43" y="-355.95" font-family="Times,serif" font-size="14.00">END</text>
</g>
<!-- J0,T5,M4&#45;&gt;END -->
<g id="edge7" class="edge">
<title>J0,T5,M4&#45;&gt;END</title>
<path fill="none" stroke="black" d="M993.11,-629.98C998.95,-622.61 1004.52,-614.67 1008.94,-606.65 1045.84,-539.61 1067.94,-452.48 1078.6,-401.64"/>
<polygon fill="black" stroke="black" points="1082.06,-402.17 1080.64,-391.67 1075.21,-400.76 1082.06,-402.17"/>
<text text-anchor="middle" x="1031.94" y="-572.45" font-family="Times,serif" font-size="14.00">6</text>
</g>
<!-- J1,T1,M2 -->
<g id="node10" class="node">
<title>J1,T1,M2</title>
<ellipse fill="none" stroke="black" cx="324.13" cy="-544.65" rx="52.79" ry="52.79"/>
<text text-anchor="middle" x="324.13" y="-540.95" font-family="Times,serif" font-size="14.00">J1,T1,M2</text>
</g>
<!-- J1,T0,M1&#45;&gt;J1,T1,M2 -->
<g id="edge9" class="edge">
<title>J1,T0,M1&#45;&gt;J1,T1,M2</title>
<path fill="none" stroke="black" d="M225.63,-544.65C237.1,-544.65 249.36,-544.65 261.18,-544.65"/>
<polygon fill="black" stroke="black" points="261.42,-548.15 271.42,-544.65 261.42,-541.15 261.42,-548.15"/>
<text text-anchor="middle" x="248.48" y="-548.45" font-family="Times,serif" font-size="14.00">8</text>
</g>
<!-- J1,T2,M4 -->
<g id="node11" class="node">
<title>J1,T2,M4</title>
<ellipse fill="none" stroke="black" cx="475.42" cy="-544.65" rx="52.79" ry="52.79"/>
<text text-anchor="middle" x="475.42" y="-540.95" font-family="Times,serif" font-size="14.00">J1,T2,M4</text>
</g>
<!-- J1,T1,M2&#45;&gt;J1,T2,M4 -->
<g id="edge10" class="edge">
<title>J1,T1,M2&#45;&gt;J1,T2,M4</title>
<path fill="none" stroke="black" d="M376.92,-544.65C388.39,-544.65 400.65,-544.65 412.47,-544.65"/>
<polygon fill="black" stroke="black" points="412.72,-548.15 422.72,-544.65 412.72,-541.15 412.72,-548.15"/>
<text text-anchor="middle" x="399.77" y="-548.45" font-family="Times,serif" font-size="14.00">5</text>
</g>
<!-- J1,T3,M5 -->
<g id="node12" class="node">
<title>J1,T3,M5</title>
<ellipse fill="none" stroke="black" cx="635.71" cy="-544.65" rx="52.79" ry="52.79"/>
<text text-anchor="middle" x="635.71" y="-540.95" font-family="Times,serif" font-size="14.00">J1,T3,M5</text>
</g>
<!-- J1,T2,M4&#45;&gt;J1,T3,M5 -->
<g id="edge11" class="edge">
<title>J1,T2,M4&#45;&gt;J1,T3,M5</title>
<path fill="none" stroke="black" d="M528.25,-544.65C542.53,-544.65 558.17,-544.65 572.96,-544.65"/>
<polygon fill="black" stroke="black" points="573.03,-548.15 583.03,-544.65 573.03,-541.15 573.03,-548.15"/>
<text text-anchor="middle" x="555.56" y="-548.45" font-family="Times,serif" font-size="14.00">10</text>
</g>
<!-- J1,T4,M0 -->
<g id="node13" class="node">
<title>J1,T4,M0</title>
<ellipse fill="none" stroke="black" cx="796" cy="-544.65" rx="52.79" ry="52.79"/>
<text text-anchor="middle" x="796" y="-540.95" font-family="Times,serif" font-size="14.00">J1,T4,M0</text>
</g>
<!-- J1,T3,M5&#45;&gt;J1,T4,M0 -->
<g id="edge12" class="edge">
<title>J1,T3,M5&#45;&gt;J1,T4,M0</title>
<path fill="none" stroke="black" d="M688.54,-544.65C702.83,-544.65 718.46,-544.65 733.25,-544.65"/>
<polygon fill="black" stroke="black" points="733.32,-548.15 743.32,-544.65 733.32,-541.15 733.32,-548.15"/>
<text text-anchor="middle" x="715.86" y="-548.45" font-family="Times,serif" font-size="14.00">10</text>
</g>
<!-- J1,T5,M3 -->
<g id="node14" class="node">
<title>J1,T5,M3</title>
<ellipse fill="none" stroke="black" cx="956.29" cy="-544.65" rx="52.79" ry="52.79"/>
<text text-anchor="middle" x="956.29" y="-540.95" font-family="Times,serif" font-size="14.00">J1,T5,M3</text>
</g>
<!-- J1,T4,M0&#45;&gt;J1,T5,M3 -->
<g id="edge13" class="edge">
<title>J1,T4,M0&#45;&gt;J1,T5,M3</title>
<path fill="none" stroke="black" d="M848.83,-544.65C863.12,-544.65 878.75,-544.65 893.54,-544.65"/>
<polygon fill="black" stroke="black" points="893.62,-548.15 903.61,-544.65 893.61,-541.15 893.62,-548.15"/>
<text text-anchor="middle" x="876.15" y="-548.45" font-family="Times,serif" font-size="14.00">10</text>
</g>
<!-- J1,T5,M3&#45;&gt;END -->
<g id="edge14" class="edge">
<title>J1,T5,M3&#45;&gt;END</title>
<path fill="none" stroke="black" d="M991.76,-505.61C997.67,-498.45 1003.62,-490.93 1008.94,-483.65 1029.6,-455.34 1050.51,-421.5 1065.4,-396.33"/>
<polygon fill="black" stroke="black" points="1068.55,-397.87 1070.6,-387.48 1062.52,-394.33 1068.55,-397.87"/>
<text text-anchor="middle" x="1031.94" y="-460.45" font-family="Times,serif" font-size="14.00">4</text>
</g>
<!-- J2,T1,M3 -->
<g id="node16" class="node">
<title>J2,T1,M3</title>
<ellipse fill="none" stroke="black" cx="324.13" cy="-421.65" rx="52.79" ry="52.79"/>
<text text-anchor="middle" x="324.13" y="-417.95" font-family="Times,serif" font-size="14.00">J2,T1,M3</text>
</g>
<!-- J2,T0,M2&#45;&gt;J2,T1,M3 -->
<g id="edge16" class="edge">
<title>J2,T0,M2&#45;&gt;J2,T1,M3</title>
<path fill="none" stroke="black" d="M225.63,-421.65C237.1,-421.65 249.36,-421.65 261.18,-421.65"/>
<polygon fill="black" stroke="black" points="261.42,-425.15 271.42,-421.65 261.42,-418.15 261.42,-425.15"/>
<text text-anchor="middle" x="248.48" y="-425.45" font-family="Times,serif" font-size="14.00">5</text>
</g>
<!-- J2,T2,M5 -->
<g id="node17" class="node">
<title>J2,T2,M5</title>
<ellipse fill="none" stroke="black" cx="475.42" cy="-421.65" rx="52.79" ry="52.79"/>
<text text-anchor="middle" x="475.42" y="-417.95" font-family="Times,serif" font-size="14.00">J2,T2,M5</text>
</g>
<!-- J2,T1,M3&#45;&gt;J2,T2,M5 -->
<g id="edge17" class="edge">
<title>J2,T1,M3&#45;&gt;J2,T2,M5</title>
<path fill="none" stroke="black" d="M376.92,-421.65C388.39,-421.65 400.65,-421.65 412.47,-421.65"/>
<polygon fill="black" stroke="black" points="412.72,-425.15 422.72,-421.65 412.72,-418.15 412.72,-425.15"/>
<text text-anchor="middle" x="399.77" y="-425.45" font-family="Times,serif" font-size="14.00">4</text>
</g>
<!-- J2,T3,M0 -->
<g id="node18" class="node">
<title>J2,T3,M0</title>
<ellipse fill="none" stroke="black" cx="635.71" cy="-421.65" rx="52.79" ry="52.79"/>
<text text-anchor="middle" x="635.71" y="-417.95" font-family="Times,serif" font-size="14.00">J2,T3,M0</text>
</g>
<!-- J2,T2,M5&#45;&gt;J2,T3,M0 -->
<g id="edge18" class="edge">
<title>J2,T2,M5&#45;&gt;J2,T3,M0</title>
<path fill="none" stroke="black" d="M528.25,-421.65C542.53,-421.65 558.17,-421.65 572.96,-421.65"/>
<polygon fill="black" stroke="black" points="573.03,-425.15 583.03,-421.65 573.03,-418.15 573.03,-425.15"/>
<text text-anchor="middle" x="555.56" y="-425.45" font-family="Times,serif" font-size="14.00">8</text>
</g>
<!-- J2,T4,M1 -->
<g id="node19" class="node">
<title>J2,T4,M1</title>
<ellipse fill="none" stroke="black" cx="796" cy="-421.65" rx="52.79" ry="52.79"/>
<text text-anchor="middle" x="796" y="-417.95" font-family="Times,serif" font-size="14.00">J2,T4,M1</text>
</g>
<!-- J2,T3,M0&#45;&gt;J2,T4,M1 -->
<g id="edge19" class="edge">
<title>J2,T3,M0&#45;&gt;J2,T4,M1</title>
<path fill="none" stroke="black" d="M688.54,-421.65C702.83,-421.65 718.46,-421.65 733.25,-421.65"/>
<polygon fill="black" stroke="black" points="733.32,-425.15 743.32,-421.65 733.32,-418.15 733.32,-425.15"/>
<text text-anchor="middle" x="715.86" y="-425.45" font-family="Times,serif" font-size="14.00">9</text>
</g>
<!-- J2,T5,M4 -->
<g id="node20" class="node">
<title>J2,T5,M4</title>
<ellipse fill="none" stroke="black" cx="956.29" cy="-421.65" rx="52.79" ry="52.79"/>
<text text-anchor="middle" x="956.29" y="-417.95" font-family="Times,serif" font-size="14.00">J2,T5,M4</text>
</g>
<!-- J2,T4,M1&#45;&gt;J2,T5,M4 -->
<g id="edge20" class="edge">
<title>J2,T4,M1&#45;&gt;J2,T5,M4</title>
<path fill="none" stroke="black" d="M848.83,-421.65C863.12,-421.65 878.75,-421.65 893.54,-421.65"/>
<polygon fill="black" stroke="black" points="893.62,-425.15 903.61,-421.65 893.61,-418.15 893.62,-425.15"/>
<text text-anchor="middle" x="876.15" y="-425.45" font-family="Times,serif" font-size="14.00">1</text>
</g>
<!-- J2,T5,M4&#45;&gt;END -->
<g id="edge21" class="edge">
<title>J2,T5,M4&#45;&gt;END</title>
<path fill="none" stroke="black" d="M1004.28,-399.09C1018.81,-392.11 1034.63,-384.52 1048.47,-377.87"/>
<polygon fill="black" stroke="black" points="1050.2,-380.92 1057.7,-373.44 1047.17,-374.61 1050.2,-380.92"/>
<text text-anchor="middle" x="1031.94" y="-390.45" font-family="Times,serif" font-size="14.00">7</text>
</g>
<!-- J3,T1,M0 -->
<g id="node22" class="node">
<title>J3,T1,M0</title>
<ellipse fill="none" stroke="black" cx="324.13" cy="-298.65" rx="52.79" ry="52.79"/>
<text text-anchor="middle" x="324.13" y="-294.95" font-family="Times,serif" font-size="14.00">J3,T1,M0</text>
</g>
<!-- J3,T0,M1&#45;&gt;J3,T1,M0 -->
<g id="edge23" class="edge">
<title>J3,T0,M1&#45;&gt;J3,T1,M0</title>
<path fill="none" stroke="black" d="M225.63,-298.65C237.1,-298.65 249.36,-298.65 261.18,-298.65"/>
<polygon fill="black" stroke="black" points="261.42,-302.15 271.42,-298.65 261.42,-295.15 261.42,-302.15"/>
<text text-anchor="middle" x="248.48" y="-302.45" font-family="Times,serif" font-size="14.00">5</text>
</g>
<!-- J3,T2,M2 -->
<g id="node23" class="node">
<title>J3,T2,M2</title>
<ellipse fill="none" stroke="black" cx="475.42" cy="-298.65" rx="52.79" ry="52.79"/>
<text text-anchor="middle" x="475.42" y="-294.95" font-family="Times,serif" font-size="14.00">J3,T2,M2</text>
</g>
<!-- J3,T1,M0&#45;&gt;J3,T2,M2 -->
<g id="edge24" class="edge">
<title>J3,T1,M0&#45;&gt;J3,T2,M2</title>
<path fill="none" stroke="black" d="M376.92,-298.65C388.39,-298.65 400.65,-298.65 412.47,-298.65"/>
<polygon fill="black" stroke="black" points="412.72,-302.15 422.72,-298.65 412.72,-295.15 412.72,-302.15"/>
<text text-anchor="middle" x="399.77" y="-302.45" font-family="Times,serif" font-size="14.00">5</text>
</g>
<!-- J3,T3,M3 -->
<g id="node24" class="node">
<title>J3,T3,M3</title>
<ellipse fill="none" stroke="black" cx="635.71" cy="-298.65" rx="52.79" ry="52.79"/>
<text text-anchor="middle" x="635.71" y="-294.95" font-family="Times,serif" font-size="14.00">J3,T3,M3</text>
</g>
<!-- J3,T2,M2&#45;&gt;J3,T3,M3 -->
<g id="edge25" class="edge">
<title>J3,T2,M2&#45;&gt;J3,T3,M3</title>
<path fill="none" stroke="black" d="M528.25,-298.65C542.53,-298.65 558.17,-298.65 572.96,-298.65"/>
<polygon fill="black" stroke="black" points="573.03,-302.15 583.03,-298.65 573.03,-295.15 573.03,-302.15"/>
<text text-anchor="middle" x="555.56" y="-302.45" font-family="Times,serif" font-size="14.00">5</text>
</g>
<!-- J3,T4,M4 -->
<g id="node25" class="node">
<title>J3,T4,M4</title>
<ellipse fill="none" stroke="black" cx="796" cy="-298.65" rx="52.79" ry="52.79"/>
<text text-anchor="middle" x="796" y="-294.95" font-family="Times,serif" font-size="14.00">J3,T4,M4</text>
</g>
<!-- J3,T3,M3&#45;&gt;J3,T4,M4 -->
<g id="edge26" class="edge">
<title>J3,T3,M3&#45;&gt;J3,T4,M4</title>
<path fill="none" stroke="black" d="M688.54,-298.65C702.83,-298.65 718.46,-298.65 733.25,-298.65"/>
<polygon fill="black" stroke="black" points="733.32,-302.15 743.32,-298.65 733.32,-295.15 733.32,-302.15"/>
<text text-anchor="middle" x="715.86" y="-302.45" font-family="Times,serif" font-size="14.00">3</text>
</g>
<!-- J3,T5,M5 -->
<g id="node26" class="node">
<title>J3,T5,M5</title>
<ellipse fill="none" stroke="black" cx="956.29" cy="-298.65" rx="52.79" ry="52.79"/>
<text text-anchor="middle" x="956.29" y="-294.95" font-family="Times,serif" font-size="14.00">J3,T5,M5</text>
</g>
<!-- J3,T4,M4&#45;&gt;J3,T5,M5 -->
<g id="edge27" class="edge">
<title>J3,T4,M4&#45;&gt;J3,T5,M5</title>
<path fill="none" stroke="black" d="M848.83,-298.65C863.12,-298.65 878.75,-298.65 893.54,-298.65"/>
<polygon fill="black" stroke="black" points="893.62,-302.15 903.61,-298.65 893.61,-295.15 893.62,-302.15"/>
<text text-anchor="middle" x="876.15" y="-302.45" font-family="Times,serif" font-size="14.00">8</text>
</g>
<!-- J3,T5,M5&#45;&gt;END -->
<g id="edge28" class="edge">
<title>J3,T5,M5&#45;&gt;END</title>
<path fill="none" stroke="black" d="M1004.28,-320.84C1018.81,-327.7 1034.63,-335.18 1048.47,-341.71"/>
<polygon fill="black" stroke="black" points="1047.16,-344.97 1057.7,-346.07 1050.15,-338.64 1047.16,-344.97"/>
<text text-anchor="middle" x="1031.94" y="-337.45" font-family="Times,serif" font-size="14.00">9</text>
</g>
<!-- J4,T1,M1 -->
<g id="node28" class="node">
<title>J4,T1,M1</title>
<ellipse fill="none" stroke="black" cx="324.13" cy="-175.65" rx="52.79" ry="52.79"/>
<text text-anchor="middle" x="324.13" y="-171.95" font-family="Times,serif" font-size="14.00">J4,T1,M1</text>
</g>
<!-- J4,T0,M2&#45;&gt;J4,T1,M1 -->
<g id="edge30" class="edge">
<title>J4,T0,M2&#45;&gt;J4,T1,M1</title>
<path fill="none" stroke="black" d="M225.63,-175.65C237.1,-175.65 249.36,-175.65 261.18,-175.65"/>
<polygon fill="black" stroke="black" points="261.42,-179.15 271.42,-175.65 261.42,-172.15 261.42,-179.15"/>
<text text-anchor="middle" x="248.48" y="-179.45" font-family="Times,serif" font-size="14.00">9</text>
</g>
<!-- J4,T2,M4 -->
<g id="node29" class="node">
<title>J4,T2,M4</title>
<ellipse fill="none" stroke="black" cx="475.42" cy="-175.65" rx="52.79" ry="52.79"/>
<text text-anchor="middle" x="475.42" y="-171.95" font-family="Times,serif" font-size="14.00">J4,T2,M4</text>
</g>
<!-- J4,T1,M1&#45;&gt;J4,T2,M4 -->
<g id="edge31" class="edge">
<title>J4,T1,M1&#45;&gt;J4,T2,M4</title>
<path fill="none" stroke="black" d="M376.92,-175.65C388.39,-175.65 400.65,-175.65 412.47,-175.65"/>
<polygon fill="black" stroke="black" points="412.72,-179.15 422.72,-175.65 412.72,-172.15 412.72,-179.15"/>
<text text-anchor="middle" x="399.77" y="-179.45" font-family="Times,serif" font-size="14.00">3</text>
</g>
<!-- J4,T3,M5 -->
<g id="node30" class="node">
<title>J4,T3,M5</title>
<ellipse fill="none" stroke="black" cx="635.71" cy="-175.65" rx="52.79" ry="52.79"/>
<text text-anchor="middle" x="635.71" y="-171.95" font-family="Times,serif" font-size="14.00">J4,T3,M5</text>
</g>
<!-- J4,T2,M4&#45;&gt;J4,T3,M5 -->
<g id="edge32" class="edge">
<title>J4,T2,M4&#45;&gt;J4,T3,M5</title>
<path fill="none" stroke="black" d="M528.25,-175.65C542.53,-175.65 558.17,-175.65 572.96,-175.65"/>
<polygon fill="black" stroke="black" points="573.03,-179.15 583.03,-175.65 573.03,-172.15 573.03,-179.15"/>
<text text-anchor="middle" x="555.56" y="-179.45" font-family="Times,serif" font-size="14.00">5</text>
</g>
<!-- J4,T4,M0 -->
<g id="node31" class="node">
<title>J4,T4,M0</title>
<ellipse fill="none" stroke="black" cx="796" cy="-175.65" rx="52.79" ry="52.79"/>
<text text-anchor="middle" x="796" y="-171.95" font-family="Times,serif" font-size="14.00">J4,T4,M0</text>
</g>
<!-- J4,T3,M5&#45;&gt;J4,T4,M0 -->
<g id="edge33" class="edge">
<title>J4,T3,M5&#45;&gt;J4,T4,M0</title>
<path fill="none" stroke="black" d="M688.54,-175.65C702.83,-175.65 718.46,-175.65 733.25,-175.65"/>
<polygon fill="black" stroke="black" points="733.32,-179.15 743.32,-175.65 733.32,-172.15 733.32,-179.15"/>
<text text-anchor="middle" x="715.86" y="-179.45" font-family="Times,serif" font-size="14.00">4</text>
</g>
<!-- J4,T5,M3 -->
<g id="node32" class="node">
<title>J4,T5,M3</title>
<ellipse fill="none" stroke="black" cx="956.29" cy="-175.65" rx="52.79" ry="52.79"/>
<text text-anchor="middle" x="956.29" y="-171.95" font-family="Times,serif" font-size="14.00">J4,T5,M3</text>
</g>
<!-- J4,T4,M0&#45;&gt;J4,T5,M3 -->
<g id="edge34" class="edge">
<title>J4,T4,M0&#45;&gt;J4,T5,M3</title>
<path fill="none" stroke="black" d="M848.83,-175.65C863.12,-175.65 878.75,-175.65 893.54,-175.65"/>
<polygon fill="black" stroke="black" points="893.62,-179.15 903.61,-175.65 893.61,-172.15 893.62,-179.15"/>
<text text-anchor="middle" x="876.15" y="-179.45" font-family="Times,serif" font-size="14.00">3</text>
</g>
<!-- J4,T5,M3&#45;&gt;END -->
<g id="edge35" class="edge">
<title>J4,T5,M3&#45;&gt;END</title>
<path fill="none" stroke="black" d="M991.74,-214.7C997.65,-221.86 1003.61,-229.37 1008.94,-236.65 1029.4,-264.57 1050.18,-297.88 1065.06,-322.79"/>
<polygon fill="black" stroke="black" points="1062.16,-324.74 1070.27,-331.56 1068.18,-321.17 1062.16,-324.74"/>
<text text-anchor="middle" x="1031.94" y="-279.45" font-family="Times,serif" font-size="14.00">1</text>
</g>
<!-- J5,T1,M3 -->
<g id="node34" class="node">
<title>J5,T1,M3</title>
<ellipse fill="none" stroke="black" cx="324.13" cy="-52.65" rx="52.79" ry="52.79"/>
<text text-anchor="middle" x="324.13" y="-48.95" font-family="Times,serif" font-size="14.00">J5,T1,M3</text>
</g>
<!-- J5,T0,M1&#45;&gt;J5,T1,M3 -->
<g id="edge37" class="edge">
<title>J5,T0,M1&#45;&gt;J5,T1,M3</title>
<path fill="none" stroke="black" d="M225.63,-52.65C237.1,-52.65 249.36,-52.65 261.18,-52.65"/>
<polygon fill="black" stroke="black" points="261.42,-56.15 271.42,-52.65 261.42,-49.15 261.42,-56.15"/>
<text text-anchor="middle" x="248.48" y="-56.45" font-family="Times,serif" font-size="14.00">3</text>
</g>
<!-- J5,T2,M5 -->
<g id="node35" class="node">
<title>J5,T2,M5</title>
<ellipse fill="none" stroke="black" cx="475.42" cy="-52.65" rx="52.79" ry="52.79"/>
<text text-anchor="middle" x="475.42" y="-48.95" font-family="Times,serif" font-size="14.00">J5,T2,M5</text>
</g>
<!-- J5,T1,M3&#45;&gt;J5,T2,M5 -->
<g id="edge38" class="edge">
<title>J5,T1,M3&#45;&gt;J5,T2,M5</title>
<path fill="none" stroke="black" d="M376.92,-52.65C388.39,-52.65 400.65,-52.65 412.47,-52.65"/>
<polygon fill="black" stroke="black" points="412.72,-56.15 422.72,-52.65 412.72,-49.15 412.72,-56.15"/>
<text text-anchor="middle" x="399.77" y="-56.45" font-family="Times,serif" font-size="14.00">3</text>
</g>
<!-- J5,T3,M0 -->
<g id="node36" class="node">
<title>J5,T3,M0</title>
<ellipse fill="none" stroke="black" cx="635.71" cy="-52.65" rx="52.79" ry="52.79"/>
<text text-anchor="middle" x="635.71" y="-48.95" font-family="Times,serif" font-size="14.00">J5,T3,M0</text>
</g>
<!-- J5,T2,M5&#45;&gt;J5,T3,M0 -->
<g id="edge39" class="edge">
<title>J5,T2,M5&#45;&gt;J5,T3,M0</title>
<path fill="none" stroke="black" d="M528.25,-52.65C542.53,-52.65 558.17,-52.65 572.96,-52.65"/>
<polygon fill="black" stroke="black" points="573.03,-56.15 583.03,-52.65 573.03,-49.15 573.03,-56.15"/>
<text text-anchor="middle" x="555.56" y="-56.45" font-family="Times,serif" font-size="14.00">9</text>
</g>
<!-- J5,T4,M4 -->
<g id="node37" class="node">
<title>J5,T4,M4</title>
<ellipse fill="none" stroke="black" cx="796" cy="-52.65" rx="52.79" ry="52.79"/>
<text text-anchor="middle" x="796" y="-48.95" font-family="Times,serif" font-size="14.00">J5,T4,M4</text>
</g>
<!-- J5,T3,M0&#45;&gt;J5,T4,M4 -->
<g id="edge40" class="edge">
<title>J5,T3,M0&#45;&gt;J5,T4,M4</title>
<path fill="none" stroke="black" d="M688.54,-52.65C702.83,-52.65 718.46,-52.65 733.25,-52.65"/>
<polygon fill="black" stroke="black" points="733.32,-56.15 743.32,-52.65 733.32,-49.15 733.32,-56.15"/>
<text text-anchor="middle" x="715.86" y="-56.45" font-family="Times,serif" font-size="14.00">10</text>
</g>
<!-- J5,T5,M2 -->
<g id="node38" class="node">
<title>J5,T5,M2</title>
<ellipse fill="none" stroke="black" cx="956.29" cy="-52.65" rx="52.79" ry="52.79"/>
<text text-anchor="middle" x="956.29" y="-48.95" font-family="Times,serif" font-size="14.00">J5,T5,M2</text>
</g>
<!-- J5,T4,M4&#45;&gt;J5,T5,M2 -->
<g id="edge41" class="edge">
<title>J5,T4,M4&#45;&gt;J5,T5,M2</title>
<path fill="none" stroke="black" d="M848.83,-52.65C863.12,-52.65 878.75,-52.65 893.54,-52.65"/>
<polygon fill="black" stroke="black" points="893.62,-56.15 903.61,-52.65 893.61,-49.15 893.62,-56.15"/>
<text text-anchor="middle" x="876.15" y="-56.45" font-family="Times,serif" font-size="14.00">4</text>
</g>
<!-- J5,T5,M2&#45;&gt;END -->
<g id="edge42" class="edge">
<title>J5,T5,M2&#45;&gt;END</title>
<path fill="none" stroke="black" d="M993.1,-90.32C998.94,-97.69 1004.51,-105.63 1008.94,-113.65 1045.75,-180.41 1067.87,-267.19 1078.57,-317.82"/>
<polygon fill="black" stroke="black" points="1075.17,-318.67 1080.61,-327.75 1082.02,-317.25 1075.17,-318.67"/>
<text text-anchor="middle" x="1031.94" y="-174.45" font-family="Times,serif" font-size="14.00">1</text>
</g>
</g>
</svg>
